<svg height="232" viewBox="0 0 235 232" width="235" xmlns="http://www.w3.org/2000/svg"><g transform="matrix(1 0 0 -1 -66 911)"><path d="m2.96533326 0h6.6666665c4.63866654 0 11.99999974 3.25733325 11.99999974 12l-.0013334 26.555999c.0693334 1.444001.628 1.444001 1.3346667 1.444001h19.9999995c2.9453332 0 5.3333332 2.3879989 5.3333332 5.3333322s-2.388 5.3333332-5.3333332 5.3333332h-19.5879996c-4.7199998-5.8866665-8.8839997-12.237333-12.4119996-18.9733329v-19.6933325c0-.7066669 0-1.2653336-1.33333334-1.3333336h-6.6666665c-.184 0-.35866666-.036-.53733332-.0546667-.93999998-3.18266655-1.75599996-6.4199998-2.42799994-9.71066639.84933331-.56799998 1.86799995-.90133331 2.96533326-.90133331" transform="translate(68.367998 819.700247)"/><path d="m38.1653324 0c2.9453332 0 5.3333332 2.38799994 5.3333332 5.3333332s-2.388 5.3333332-5.3333332 5.3333332h-11.7879997c-9.2986665-2.49199994-18.14133291-6.09733318-26.3773327-10.6666664z" transform="translate(126.50133 899.700244)"/><path d="m13.333333 5.3333332c0-2.94533326 2.3879999-5.3333332 5.3333332-5.3333332h19.9999995c4.6386666 0 11.9999997 3.25733325 11.9999997 12 0 4.6386663-3.2573333 12-11.9999997 12h-33.3333325c-2.94533326 0-5.3333332-2.3880005-5.3333332-5.3333338s2.38799994-5.3333332 5.3333332-5.3333332h33.3333325c.7066666 0 1.2653333 0 1.3333343-1.333333 0-.7066669 0-1.2653336-1.3333343-1.3333336h-19.9999995c-2.9453333 0-5.3333332-2.38799994-5.3333332-5.3333332" transform="translate(239.333327 819.700247)"/><path d="m50.6666654 5.3333332c0 2.94533326-2.3879999 5.3333332-5.3333332 5.3333332h-39.999999c-2.94533326 0-5.3333332-2.38799994-5.3333332-5.3333332s2.38799994-5.3333332 5.3333332-5.3333332h39.999999c2.9453333 0 5.3333332 2.38799994 5.3333332 5.3333332" transform="translate(172.666662 766.366914)"/><path d="m18.6666662 37.3333324c-2.9453333 0-5.3333332-2.3879999-5.3333332-5.3333324v-20c0-.7066669 0-1.2653336-1.333333-1.3333336h-6.6666668c-2.94533326 0-5.3333332-2.38799994-5.3333332-5.3333332s2.38799994-5.3333332 5.3333332-5.3333332h6.6666668c4.6386663 0 12 3.25733325 12 12v20c0 2.9453325-2.3880005 5.3333324-5.3333338 5.3333324" transform="translate(145.999996 766.366914)"/><path d="m24 5.3333332v6.6666668c0 4.6386663-3.2573339 12-12 12h-6.6666668c-2.94533326 0-5.3333332-2.3880005-5.3333332-5.3333338s2.38799994-5.3333332 5.3333332-5.3333332h6.6666668c.7066663 0 1.265333 0 1.333333-1.333333v-6.6666668c0-2.94533326 2.3879999-5.3333332 5.3333332-5.3333332s5.3333338 2.38799994 5.3333338 5.3333332" transform="translate(212.666661 766.366914)"/><path d="m64 5.3333332c0 2.94533326-2.3880015 5.3333332-5.3333348 5.3333332h-53.333332c-2.94533326 0-5.3333332-2.38799994-5.3333332-5.3333332s2.38799994-5.3333332 5.3333332-5.3333332h53.333332c2.9453333 0 5.3333348 2.38799994 5.3333348 5.3333332" transform="translate(172.666662 793.033581)"/><path d="m50.6666654 45.3333322c0 2.9453333-2.3879999 5.3333332-5.3333332 5.3333332h-33.3333322c-8.74266675 0-12-7.3613331-12-11.9999997v-33.3333325c0-2.94533326 2.38799994-5.3333332 5.3333332-5.3333332s5.3333332 2.38799994 5.3333332 5.3333332l-.0013333 33.2226658c.0693333 1.444001.628 1.444001 1.3346669 1.444001h33.3333322c2.9453333 0 5.3333332 2.3879989 5.3333332 5.3333322" transform="translate(119.33333 846.366913)"/><path d="m5.3333332 0h66.6666668c2.9453315 0 5.3333314 2.38799994 5.3333314 5.3333332s-2.3879999 5.3333332-5.3333314 5.3333332h-66.6666668c-2.94533326 0-5.3333332-2.38799994-5.3333332-5.3333332s2.38799994-5.3333332 5.3333332-5.3333332" transform="translate(145.999996 873.033578)"/><path d="m0 5.3333332c0-2.94533326 2.38799994-5.3333332 5.3333332-5.3333332h35.4986658c-8.2359998 4.56933322-17.0786663 8.17466646-26.3773327 10.6666664h-9.1213331c-2.94533326 0-5.3333332-2.38799994-5.3333332-5.3333332" transform="translate(199.333328 899.700244)"/><path d="m0 18.6666662v-6.6666662c0-4.63866685 3.25733325-12 12-12h33.3333322c2.9453333 0 5.3333332 2.38799994 5.3333332 5.3333332s-2.3879999 5.3333332-5.3333332 5.3333332h-33.3333322c-.7066669 0-1.2653336 0-1.3333336 1.3333336v6.6666662c0 2.9453333-2.38799994 5.3333338-5.3333332 5.3333338s-5.3333332-2.3880005-5.3333332-5.3333338" transform="translate(92.666664 833.033579)"/><path d="m10.6666664 12v6.6666662c0 2.9453333-2.38799994 5.3333338-5.3333332 5.3333338s-5.3333332-2.3880005-5.3333332-5.3333338v-6.6666662c0-4.63866685 3.25733325-12 12-12h74.7279978c-4.5959999 3.91733324-9.4973331 7.48799981-14.6639996 10.6666664h-60.0639982c-.7066669 0-1.2653336 0-1.3333336 1.3333336" transform="translate(172.666662 886.366912)"/><path d="m72 0c2.9453315 0 5.3333314 2.38799994 5.3333314 5.3333332s-2.3879999 5.3333332-5.3333314 5.3333332h-60c-.7066669 0-1.2653336 0-1.3333336 1.3333336v6.6666662c0 2.9453333-2.38799994 5.3333338-5.3333332 5.3333338s-5.3333332-2.3880005-5.3333332-5.3333338v-6.6666662c0-4.63866685 3.25733325-12 12-12z" transform="translate(145.999996 833.033579)"/><path d="m0 5.3333332c0-2.94533326 2.38799994-5.3333332 5.3333332-5.3333332h41.3866656c-3.2066666 3.76799991-6.6426665 7.33333315-10.2946664 10.6666664h-31.0919992c-2.94533326 0-5.3333332-2.38799994-5.3333332-5.3333332" transform="translate(225.999994 873.033578)"/><path d="m50.6666654 5.3333332c0 2.94533326-2.3879999 5.3333332-5.3333332 5.3333332h-39.999999c-2.94533326 0-5.3333332-2.38799994-5.3333332-5.3333332s2.38799994-5.3333332 5.3333332-5.3333332h39.999999c2.9453333 0 5.3333332 2.38799994 5.3333332 5.3333332" transform="translate(172.666662 846.366913)"/><path d="m0 18.6666662v-6.6666662c0-4.63866685 3.25733325-12 12-12h80c4.6386643 0 12 3.25733325 12 12v6.6666662c0 2.9453333-2.388003 5.3333338-5.3333358 5.3333338-2.9453333 0-5.3333332-2.3880005-5.3333332-5.3333338v-6.6666662c0-.7066669 0-1.2653336-1.333331-1.3333336h-80c-.7066669 0-1.2653336 0-1.3333336 1.3333336v6.6666662c0 2.9453333-2.38799994 5.3333338-5.3333332 5.3333338s-5.3333332-2.3880005-5.3333332-5.3333338" transform="translate(119.33333 699.70025)"/><path d="m36.4253324 10.6666664h-24.4253324c-.7066669 0-1.2653336 0-1.3333336 1.3333336v6.6666662c0 2.9453333-2.38799994 5.3333338-5.3333332 5.3333338s-5.3333332-2.3880005-5.3333332-5.3333338v-6.6666662c0-4.63866685 3.25866659-12 12-12h10.8773328c4.7786665 3.22399992 9.3053331 6.79333316 13.5479996 10.6666664" transform="translate(225.999728 699.70025)"/><path d="m0 5.3333332c0-2.94533326 2.38799994-5.3333332 5.3333332-5.3333332h26.6666668c2.9453325 0 5.3333324 2.38799994 5.3333324 5.3333332s-2.3879999 5.3333332-5.3333324 5.3333332h-26.6666668c-2.94533326 0-5.3333332-2.38799994-5.3333332-5.3333332" transform="translate(172.666662 713.033582)"/><path d="m11.5879997 4.59333322c0 2.94533326-2.38799993 5.3333332-5.33333319 5.3333332h-6.25466651c2.78533326-3.47466658 5.76266652-6.79199983 8.92133311-9.92666642 1.58666659.92399998 2.66666659 2.62399993 2.66666659 4.59333322" transform="translate(91.745331 713.773582)"/><path d="m3.43066658 4c-1.25866663 0-2.39199994-.16666676-3.43066658-.44266676 9.2053331-2.31999994 18.8399995-3.55733324 28.7639993-3.55733324 10.5346664 0 20.7413328 1.39599997 30.4546659 4z" transform="translate(154.569329 679.70025)"/><path d="m191.510662 37.3333324h-46.177332c-8.742667 0-12-7.3613331-12-11.9999997v-13.3333327c0-.7066669 0-1.2653336-1.33333-1.3333336h-126.6666668c-2.94533326 0-5.3333332-2.38799994-5.3333332-5.3333332s2.38799994-5.3333332 5.3333332-5.3333332h126.6666668c4.638663 0 12 3.25733325 12 12l-.00267 13.222666c.069333 1.444.628 1.444 1.336 1.444h51.813332c-1.7 3.6626666-3.581334 7.2213332-5.636 10.6666664" transform="translate(92.667064 819.700247)"/><path d="m2.05999995 10.6666664c-.73066665 0-1.42666663-.148-2.05999995-.4146667 6.80133316-4.12133319 14.057333-7.56399977 21.6706661-10.2519997h78.1119981c7.8653328 2.77599993 15.3466658 6.36266651 22.3413328 10.6666664z" transform="translate(122.606664 686.366916)"/><path d="m12.425333 3.57866658c0 2.94533326-2.3879999 5.3333332-5.33333318 5.3333332h-7.09199982c3.48799991-3.18399992 7.16799982-6.16266652 11.0226664-8.91199978.8626666.94799998 1.4026666 2.19599995 1.4026666 3.57866658" transform="translate(104.241331 701.454916)"/><path d="m0 5.3333332c0-2.94533326 2.38799994-5.3333332 5.3333332-5.3333332h7.2426665c3.4386666 3.35333325 6.6719998 6.91599983 9.6786664 10.6666664h-16.9213329c-2.94533326 0-5.3333332-2.38799994-5.3333332-5.3333332" transform="translate(252.66666 713.033582)"/><path d="m162.343996 0c4.638666 0 12 3.25733325 12 12v40c0 1.333332.834666 1.333332 1.333333 1.333332h49.257332c.045333 1.3293333.076 2.6613333.076 3.9999999 0 2.2386666-.069333 4.4599999-.193333 6.6666681h-49.139999c-8.742667 0-12-7.3613347-12-12v-40c0-.7066669 0-1.2653336-1.333333-1.3333336h-162.343996c1.58666663-3.65599991 3.35466658-7.21466649 5.29066653-10.6666664z" transform="translate(75.655998 739.700248)"/><path d="m.076 0h5.2573332c2.94533326 0 5.3333332 2.38799994 5.3333332 5.3333332s-2.38799994 5.3333332-5.3333332 5.3333332h-5.13999987c-.124-2.20666661-.19333333-4.42799989-.19333333-6.6666664 0-1.33866673.03066667-2.6706667.076-4" transform="translate(65.999465 793.033581)"/><path d="m56.9613319 0c2.9453333 0 5.3333332 2.38799994 5.3333332 5.3333332s-2.3879999 5.3333332-5.3333332 5.3333332h-56.9613319c.62133332-3.61466658 1.40799996-7.17199982 2.35199994-10.6666664z" transform="translate(67.705332 766.366914)"/><path d="m7.38266648.61199999h185.66666252c5.077333 6.71866649 9.446666 13.99999961 12.999999 21.73333281v16.9333329c0 4.6386665-3.257333 11.9999997-12 11.9999997h-13.333333c-1.333333 0-1.333333.8346666-1.334666 1.2226666.069333 1.444.628 1.444 1.334666 1.444h34.722666c.52 3.5079999.882667 7.0653331 1.084 10.6666664h-35.806666c-8.742666 0-11.999999-7.3613332-11.999999-11.9999997 0-8.7426665 7.361333-11.9999997 11.999999-11.9999997h13.333333c.706667 0 1.265334 0 1.333334-1.3333333v-26.666666c0-.7066667 0-1.2653333-1.333334-1.3333333h-186.66666152c-3.13599992 0-5.55599986-.956-7.38266648-2.38533329 1.92666662-3.06266659 3.9919999-6.03066651 6.18533318-8.89333311.21999999.61199999.66666665.61199999 1.1973333.61199999" transform="translate(83.950665 725.754916)"/><path d="m44.9639989 0c2.9453332 0 5.3333332 2.38799994 5.3333332 5.3333332s-2.388 5.3333332-5.3333332 5.3333332h-43.62799893c-.60266665-3.50533325-1.05199998-7.06133316-1.33599997-10.6666664z" transform="translate(66.369332 806.366914)"/><path d="m1.08399997 0h77.38933143c8.7426664 0 11.9999997 7.36133315 11.9999997 12v6.6666662c0 2.9453333-2.388 5.3333338-5.3333332 5.3333338-2.9453333 0-5.3333332-2.3880005-5.3333332-5.3333338v-6.6666662c0-1.3333336-.8346667-1.3333336-1.3333333-1.3333336h-78.4733314c.20133333-3.60133324.56399999-7.15866649 1.08399997-10.6666664" transform="translate(66.193332 779.700248)"/><path d="m0 5.3333332c0-2.94533326 2.38799994-5.3333332 5.3333332-5.3333332h6.6666668c4.6386663 0 12 3.25733325 12 12 0 4.6386663-3.2573339 12-12 12h-6.6666668c-2.94533326 0-5.3333332-2.3880005-5.3333332-5.3333338s2.38799994-5.3333332 5.3333332-5.3333332h6.6666668c.7066663 0 1.265333 0 1.333333-1.333333 0-.7066669 0-1.2653336-1.333333-1.3333336h-6.6666668c-2.94533326 0-5.3333332-2.38799994-5.3333332-5.3333332" transform="translate(252.66666 739.700248)"/><path d="m26.666666 12c0-.7066669 0-1.2653336-1.3333333-1.3333336h-19.9999995c-2.94533326 0-5.3333332-2.38799994-5.3333332-5.3333332s2.38799994-5.3333332 5.3333332-5.3333332h19.9999995c4.6386666 0 11.9999997 3.25599992 11.9986664 11.8866664v.0026666c.0693333 1.444.628 1.444 1.3346666 1.444h168.9639953c-.284 3.6053332-.733333 7.1613332-1.335999 10.666667h-167.6279963c-8.7426664 0-11.9999997-7.3613337-11.9999997-12" transform="translate(92.666664 793.033581)"/><path d="m165.854663 5.3333332c0 2.94533326-2.388 5.3333332-5.333334 5.3333332h-160.521329c1.07466664-3.63199991 2.31866661-7.19066649 3.72533324-10.6666664h156.79599576c2.945334 0 5.333334 2.38799994 5.333334 5.3333332" transform="translate(70.811998 753.033581)"/><path d="m0 5.3333332c0-2.94533326 2.38799994-5.3333332 5.3333332-5.3333332h26.6666668c2.9453325 0 5.3333324 2.38799994 5.3333324 5.3333332s-2.3879999 5.3333332-5.3333324 5.3333332h-26.6666668c-2.94533326 0-5.3333332-2.38799994-5.3333332-5.3333332" transform="translate(145.999996 859.700246)"/><path d="m64 5.3333332c0 2.94533326-2.3880015 5.3333332-5.3333348 5.3333332h-53.333332c-2.94533326 0-5.3333332-2.38799994-5.3333332-5.3333332s2.38799994-5.3333332 5.3333332-5.3333332h53.333332c2.9453333 0 5.3333348 2.38799994 5.3333348 5.3333332" transform="translate(212.212928 859.700246)"/></g></svg>